<?xml version="1.0" standalone="no"?>
<!DOCTYPE svg PUBLIC "-//W3C//DTD SVG 20010904//EN"
 "http://www.w3.org/TR/2001/REC-SVG-20010904/DTD/svg10.dtd">
<svg version="1.0" xmlns="http://www.w3.org/2000/svg"
 width="512.000000pt" height="512.000000pt" viewBox="0 0 512.000000 512.000000"
 preserveAspectRatio="xMidYMid meet">

<g transform="translate(0.000000,512.000000) scale(0.100000,-0.100000)"
fill="#000000" stroke="none">
<path d="M3824 5111 c-63 -4 -107 -11 -117 -20 -21 -16 -33 -64 -43 -156 -9
-96 -13 -103 -70 -129 l-51 -24 -94 59 c-113 70 -146 75 -191 27 -111 -119
-176 -196 -182 -215 -9 -28 2 -49 80 -150 l64 -81 -16 -39 c-9 -21 -17 -39
-19 -41 -1 -1 -85 33 -185 78 -101 44 -191 80 -201 80 -41 0 -69 -50 -204
-360 -76 -173 -143 -326 -151 -340 -11 -21 -13 67 -14 576 0 559 -1 602 -17
616 -10 9 -28 19 -40 22 -26 8 -78 -16 -87 -39 -3 -9 -6 -94 -6 -189 l0 -173
-77 -7 c-300 -27 -615 -154 -853 -344 -165 -132 -360 -365 -360 -430 0 -38 37
-72 78 -72 28 0 38 9 89 78 203 277 438 449 753 552 101 34 283 70 349 70 l21
0 0 -1600 0 -1600 -241 0 c-342 0 -339 -3 -339 250 l0 151 -27 25 c-16 14 -77
58 -138 97 -198 128 -377 331 -488 552 -97 195 -144 379 -154 600 -6 158 5
267 43 424 30 121 26 142 -31 161 -59 19 -84 -6 -112 -111 -42 -156 -56 -288
-50 -469 11 -321 98 -589 278 -860 87 -131 290 -333 427 -424 l102 -68 0 -127
c0 -147 13 -197 66 -259 19 -22 54 -50 79 -62 l45 -22 0 -201 c1 -218 6 -260
47 -344 72 -147 229 -233 424 -233 l69 0 0 -144 c0 -122 3 -147 18 -165 26
-32 72 -37 105 -11 l27 21 0 920 c0 505 3 919 8 919 22 0 757 -331 760 -342 1
-8 -1 -31 -5 -52 -7 -32 -15 -41 -45 -53 l-37 -15 -76 53 c-109 75 -116 74
-231 -43 -115 -116 -116 -123 -43 -228 50 -70 51 -74 40 -110 -13 -44 -13 -44
-116 -61 -120 -19 -125 -26 -125 -187 0 -169 3 -173 134 -196 l94 -17 14 -38
15 -38 -53 -79 c-30 -43 -54 -89 -54 -103 0 -37 186 -221 223 -221 15 0 58 22
105 53 l78 54 34 -16 c19 -8 36 -16 38 -17 2 -1 10 -41 19 -90 24 -130 29
-134 191 -134 164 0 173 5 191 112 20 116 19 114 61 128 38 12 39 12 111 -39
106 -75 114 -73 232 48 60 61 97 106 97 119 0 11 -25 57 -55 101 l-55 80 15
39 16 39 85 13 c52 8 95 21 110 32 23 19 24 23 24 159 0 125 -2 141 -20 159
-11 11 -30 22 -42 24 -13 3 -43 10 -68 15 -32 6 50 9 275 10 231 1 326 5 341
14 11 7 95 91 187 188 150 160 166 181 172 220 3 24 5 329 3 677 l-3 634 -28
24 -28 24 -444 0 -445 0 26 58 c14 31 48 110 76 175 l51 117 -42 106 c-23 59
-40 107 -39 108 2 1 28 13 59 28 l56 26 64 -40 c120 -76 147 -88 178 -77 26 9
181 170 218 226 22 33 11 60 -65 159 l-69 88 19 56 20 56 100 23 c122 27 143
36 156 66 14 30 0 301 -16 332 -15 27 -23 30 -156 47 -59 8 -109 16 -110 18
-1 1 -12 26 -25 54 l-23 50 61 97 c59 93 68 118 55 151 -3 8 -57 61 -120 116
-86 75 -121 100 -142 100 -19 0 -57 -22 -120 -71 l-92 -71 -58 20 -57 19 -26
113 c-38 162 -25 156 -285 141z m197 -733 c135 -46 220 -190 190 -323 -16 -72
-64 -142 -125 -182 -26 -18 -52 -33 -56 -33 -5 0 -20 31 -35 70 -15 38 -37 78
-49 87 -12 10 -84 45 -159 78 -151 66 -153 68 -122 141 43 103 149 174 260
174 34 0 77 -5 96 -12z m-698 -265 c259 -113 473 -207 475 -208 1 -1 -45 -110
-103 -242 -58 -132 -105 -249 -105 -260 0 -12 8 -30 18 -41 9 -11 122 -66 250
-123 128 -56 234 -105 237 -108 2 -4 -26 -75 -63 -159 l-67 -152 -144 0 -144
0 -36 -38 c-20 -21 -98 -104 -174 -184 -90 -95 -141 -158 -147 -180 -6 -18
-10 -194 -10 -390 0 -197 -2 -358 -5 -358 -3 0 -200 85 -437 189 l-433 190 -3
669 -2 668 191 435 c105 239 197 449 204 467 8 17 17 32 20 32 3 0 218 -93
478 -207z m657 -583 c44 -112 78 -205 76 -207 -3 -3 -275 115 -285 123 -2 2
25 68 60 148 35 80 65 144 66 142 2 -2 39 -94 83 -206z m753 -955 l-78 -85
-539 0 -538 0 78 84 79 85 538 0 538 1 -78 -85z m187 -565 l0 -531 -80 -82
-79 -82 -1 138 c0 133 -1 139 -25 162 -30 31 -77 33 -105 5 -19 -19 -20 -33
-20 -220 0 -152 -3 -202 -13 -205 -7 -3 -137 -4 -290 -3 l-277 3 25 37 c45 67
37 90 -68 195 -115 115 -125 117 -233 42 l-74 -51 -37 15 c-38 15 -38 15 -55
108 -19 103 -37 129 -89 129 l-29 0 0 330 0 330 568 -2 567 -3 3 -200 c2 -190
3 -201 23 -217 32 -27 83 -23 108 8 20 25 21 39 21 244 l0 217 76 81 c42 45
78 82 80 82 2 0 4 -239 4 -530z m-2640 -1211 l0 -312 -90 6 c-114 9 -177 34
-230 95 -60 68 -70 114 -70 334 l0 188 195 0 195 0 0 -311z m1224 194 c87 -61
110 -176 53 -262 -39 -59 -95 -84 -172 -79 -49 3 -70 10 -99 31 -80 61 -101
174 -47 258 25 40 48 58 111 83 33 13 115 -4 154 -31z"/>
<path d="M719 4631 c-16 -16 -29 -40 -29 -52 0 -27 282 -317 317 -325 12 -3
31 -3 42 1 27 8 54 60 47 89 -8 34 -298 316 -325 316 -12 0 -36 -13 -52 -29z"/>
<path d="M70 3040 c-13 -13 -20 -33 -20 -59 0 -67 13 -71 248 -71 124 0 211 4
223 11 43 23 42 106 -1 129 -11 6 -109 10 -224 10 -193 0 -207 -1 -226 -20z"/>
<path d="M872 1576 c-168 -166 -177 -183 -132 -232 47 -50 69 -38 227 118 79
79 146 153 150 165 9 37 -5 72 -37 88 -16 8 -35 15 -41 15 -7 0 -82 -69 -167
-154z"/>
</g>
</svg>
